<svg xmlns="http://www.w3.org/2000/svg" viewBox="0 0 1024 1024" role="img" aria-labelledby="title">
  <title id="title">Arc A: open arc with a data point, blue tile</title>
  <path id="tile" fill="#2F5B7A" d="M 648.3968 32 c 120.2724 0 180.4086 0 226.3466 23.4066 a 214.752 214.752 0 0 1 93.8501 93.8501 c 23.4066 45.938 23.4066 106.0742 23.4066 226.3466 L 992 648.3968 c 0 120.2724 0 180.4086 -23.4066 226.3466 a 214.752 214.752 0 0 1 -93.8501 93.8501 c -45.938 23.4066 -106.0742 23.4066 -226.3466 23.4066 L 375.6032 992 c -120.2724 0 -180.4086 0 -226.3466 -23.4066 a 214.752 214.752 0 0 1 -93.8501 -93.8501 c -23.4066 -45.938 -23.4066 -106.0742 -23.4066 -226.3466 L 32 375.6032 c 0 -120.2724 0 -180.4086 23.4066 -226.3466 a 214.752 214.752 0 0 1 93.8501 -93.8501 c 45.938 -23.4066 106.0742 -23.4066 226.3466 -23.4066 Z"/>
  <g id="mark" transform="translate(96 96) scale(0.8125)" fill="none" stroke="#FFFFFF" stroke-width="96" stroke-linecap="round">
    <path id="arc" d="M 512 212 A 300 300 0 1 0 812 512"/>
    <circle id="point" cx="724.1" cy="299.9" r="60" fill="#FFFFFF" stroke="none"/>
  </g>
</svg>
